<?xml version="1.0"?>
<svg xmlns="http://www.w3.org/2000/svg" xmlns:xlink="http://www.w3.org/1999/xlink" width="512" height="512" viewBox="0 0 128 128"><defs><linearGradient id="a" x1="116.529" y1="116.612" x2="14.846" y2="14.929" gradientUnits="userSpaceOnUse"><stop offset="0" stop-color="#d7245a"/><stop offset="1" stop-color="#4aceef"/></linearGradient></defs><path d="M126.25,22H8.75a1.75,1.75,0,0,0,0,3.5H27.921v77.167H3.5V30.5a1.75,1.75,0,0,0-3.5,0v73.917a1.751,1.751,0,0,0,1.75,1.75h124.5a1.751,1.751,0,0,0,1.75-1.75V23.75A1.751,1.751,0,0,0,126.25,22Zm-1.75,80.667H100.079v-12.5a1.75,1.75,0,0,0-3.5,0v12.5H31.421V25.5H96.579V62.494a1.75,1.75,0,0,0,3.5,0V25.5H124.5ZM100.079,73.191v6.278a1.75,1.75,0,0,1-3.5,0V73.191a1.75,1.75,0,0,1,3.5,0ZM84.408,62.518,45.158,42.893a1.751,1.751,0,0,0-2.533,1.565v39.25a1.752,1.752,0,0,0,2.533,1.566l39.25-19.625a1.751,1.751,0,0,0,0-3.131ZM46.125,80.877V47.29L79.712,64.083Zm60.2-36.8H118.25a1.751,1.751,0,0,0,1.75-1.75V31.75A1.751,1.751,0,0,0,118.25,30H106.329a1.75,1.75,0,0,0-1.75,1.75V42.324A1.75,1.75,0,0,0,106.329,44.074Zm1.75-10.574H116.5v7.074h-8.421Zm-1.75,28.6H118.25a1.751,1.751,0,0,0,1.75-1.75V49.781a1.75,1.75,0,0,0-1.75-1.75H106.329a1.749,1.749,0,0,0-1.75,1.75V60.355A1.75,1.75,0,0,0,106.329,62.105Zm1.75-10.574H116.5v7.074h-8.421Zm-1.75,28.6H118.25a1.751,1.751,0,0,0,1.75-1.75V67.812a1.75,1.75,0,0,0-1.75-1.75H106.329a1.749,1.749,0,0,0-1.75,1.75V78.386A1.75,1.75,0,0,0,106.329,80.136Zm1.75-10.574H116.5v7.074h-8.421Zm-1.75,28.605H118.25a1.751,1.751,0,0,0,1.75-1.75V85.843a1.75,1.75,0,0,0-1.75-1.75H106.329a1.749,1.749,0,0,0-1.75,1.75V96.417A1.75,1.75,0,0,0,106.329,98.167Zm1.75-10.574H116.5v7.074h-8.421ZM9.75,44.074H21.671a1.75,1.75,0,0,0,1.75-1.75V31.75A1.75,1.75,0,0,0,21.671,30H9.75A1.751,1.751,0,0,0,8,31.75V42.324A1.751,1.751,0,0,0,9.75,44.074ZM11.5,33.5h8.421v7.074H11.5ZM8,60.355a1.751,1.751,0,0,0,1.75,1.75H21.671a1.75,1.75,0,0,0,1.75-1.75V49.781a1.749,1.749,0,0,0-1.75-1.75H9.75A1.75,1.75,0,0,0,8,49.781Zm3.5-8.824h8.421v7.074H11.5ZM8,78.386a1.751,1.751,0,0,0,1.75,1.75H21.671a1.75,1.75,0,0,0,1.75-1.75V67.812a1.749,1.749,0,0,0-1.75-1.75H9.75A1.75,1.75,0,0,0,8,67.812Zm3.5-8.824h8.421v7.074H11.5ZM8,96.417a1.751,1.751,0,0,0,1.75,1.75H21.671a1.75,1.75,0,0,0,1.75-1.75V85.843a1.749,1.749,0,0,0-1.75-1.75H9.75A1.75,1.75,0,0,0,8,85.843Zm3.5-8.824h8.421v7.074H11.5Z" fill="url(#a)"/></svg>
