<svg height="512" viewBox="0 0 128 128" width="512" xmlns="http://www.w3.org/2000/svg"><g><path d="m1.75 23.75h27.921v80.667h-27.921z" fill="#444156"/><path d="m98.329 23.75h27.921v80.667h-27.921z" fill="#444156" transform="matrix(-1 0 0 -1 224.579 128.167)"/><path d="m29.671 23.75h68.657v80.667h-68.657z" fill="#fff16b"/><path d="m44.375 44.458 39.25 19.625-39.25 19.625z" fill="#ff7d47"/><g fill="#66666d"><path d="m106.329 31.75h11.921v10.574h-11.921z"/><path d="m106.329 49.781h11.921v10.574h-11.921z"/><path d="m106.329 67.812h11.921v10.574h-11.921z"/><path d="m106.329 85.843h11.921v10.574h-11.921z"/><path d="m9.75 31.75h11.921v10.574h-11.921z"/><path d="m9.75 49.781h11.921v10.574h-11.921z"/><path d="m9.75 67.812h11.921v10.574h-11.921z"/><path d="m9.75 85.843h11.921v10.574h-11.921z"/></g></g></svg>